<svg xmlns="http://www.w3.org/2000/svg" viewBox="0 0 512 512" role="img" aria-label="Finanza">
  <defs>
    <linearGradient id="bg" x1="0" y1="0" x2="1" y2="1">
      <stop offset="0" stop-color="#020617"/>
      <stop offset="0.52" stop-color="#0f172a"/>
      <stop offset="1" stop-color="#075985"/>
    </linearGradient>
    <linearGradient id="silver" x1="0" y1="0" x2="1" y2="1">
      <stop offset="0" stop-color="#ffffff"/>
      <stop offset="0.45" stop-color="#dbeafe"/>
      <stop offset="1" stop-color="#94a3b8"/>
    </linearGradient>
    <linearGradient id="growth" x1="0" y1="1" x2="1" y2="0">
      <stop offset="0" stop-color="#22c55e"/>
      <stop offset="1" stop-color="#38bdf8"/>
    </linearGradient>
    <filter id="shadow" x="-20%" y="-20%" width="140%" height="140%">
      <feDropShadow dx="0" dy="14" stdDeviation="16" flood-color="#000000" flood-opacity="0.38"/>
    </filter>
  </defs>

  <rect width="512" height="512" rx="112" fill="url(#bg)"/>
  <circle cx="392" cy="96" r="126" fill="#38bdf8" opacity="0.10"/>
  <circle cx="110" cy="430" r="150" fill="#22c55e" opacity="0.08"/>

  <g filter="url(#shadow)">
    <path d="M285 132c-78 0-138 55-138 126s60 126 138 126c45 0 81-15 107-42v-91H284v55h48v18c-14 10-30 15-49 15-45 0-78-34-78-81s33-81 80-81c29 0 50 10 68 29l41-40c-27-29-64-44-109-44z" fill="url(#silver)"/>
    <rect x="96" y="219" width="142" height="22" rx="11" fill="url(#silver)" opacity="0.98"/>
    <rect x="96" y="274" width="128" height="22" rx="11" fill="url(#silver)" opacity="0.98"/>
  </g>

  <path d="M112 360h286c28 0 50 22 50 50v1c0 20-16 36-36 36H112c-27 0-48-22-48-48v-87c13 29 38 48 48 48z" fill="#e2e8f0" opacity="0.14"/>
  <path d="M326 353h88c14 0 25 11 25 25s-11 25-25 25h-88c-14 0-25-11-25-25s11-25 25-25z" fill="#e2e8f0" opacity="0.95"/>
  <circle cx="399" cy="378" r="10" fill="#0f172a" opacity="0.85"/>

  <path d="M126 321l78-70 61 46 107-122" fill="none" stroke="url(#growth)" stroke-width="32" stroke-linecap="round" stroke-linejoin="round"/>
  <path d="M353 172h67v67" fill="none" stroke="url(#growth)" stroke-width="32" stroke-linecap="round" stroke-linejoin="round"/>
</svg>
